<?xml version="1.0" standalone="no"?>
<!DOCTYPE svg PUBLIC "-//W3C//DTD SVG 20010904//EN"
 "http://www.w3.org/TR/2001/REC-SVG-20010904/DTD/svg10.dtd">
<svg version="1.0" xmlns="http://www.w3.org/2000/svg"
 width="128.000000pt" height="128.000000pt" viewBox="0 0 128.000000 128.000000"
 preserveAspectRatio="xMidYMid meet">
<metadata>
Created by potrace 1.11, written by Peter Selinger 2001-2013
</metadata>
<g transform="translate(0.000000,128.000000) scale(0.100000,-0.100000)"
fill="#000000" stroke="none">
<path d="M160 1267 c-48 -15 -133 -102 -147 -151 -17 -56 -18 -877 -1 -943 9
-36 25 -61 63 -99 75 -76 79 -76 600 -72 l440 3 45 28 c55 35 95 89 110 148 7
30 10 188 8 484 -3 487 -2 478 -70 544 -69 67 -56 66 -558 68 -313 1 -466 -2
-490 -10z"/>
</g>
</svg>
